<svg xmlns="http://www.w3.org/2000/svg" viewBox="0 0 32 32"><title>Profit</title><g id="_11-20" data-name="11-20"><g id="Profit"><path d="M29,25H27V13a2,2,0,0,0-2-2H23a2,2,0,0,0-2,2V25H19V16a2,2,0,0,0-2-2H15a2,2,0,0,0-2,2v9H11V19a2,2,0,0,0-2-2H7a2,2,0,0,0-2,2v6H3a1,1,0,0,0,0,2H29a1,1,0,0,0,0-2ZM7,25V19H9v6Zm8,0V16h2v9Zm8,0V13h2V25Z" id="id_101" style="fill: rgb(154, 86, 38);"></path><path d="M5,15a1,1,0,0,0,.346-.062L24.062,8.052l-.241.513a1,1,0,1,0,1.811.849L26.905,6.7a1,1,0,0,0-.481-1.33L23.707,4.094a1,1,0,0,0-.848,1.812l.547.256-18.752,6.9A1,1,0,0,0,5,15Z" id="id_102" style="fill: rgb(154, 86, 38);"></path></g></g></svg>