<svg version="1.1" id="Layer_1" xmlns="http://www.w3.org/2000/svg" xmlns:xlink="http://www.w3.org/1999/xlink" x="0px" y="0px" viewBox="0 0 24 24" enable-background="new 0 0 24 24" xml:space="preserve">
<g>
	<path fill="#9a5626" d="M10.5,15c4.1357422,0,7.5-3.3642578,7.5-7.5S14.6357422,0,10.5,0S3,3.3642578,3,7.5S6.3642578,15,10.5,15z
		 M10.5,1C14.0839844,1,17,3.9160156,17,7.5S14.0839844,14,10.5,14S4,11.0839844,4,7.5S6.9160156,1,10.5,1z" id="id_103"></path>
	<path fill="#9a5626" d="M10.75,9.5H9c-0.2763672,0-0.5,0.2236328-0.5,0.5s0.2236328,0.5,0.5,0.5h1V11
		c0,0.2763672,0.2236328,0.5,0.5,0.5S11,11.2763672,11,11v-0.5252686c0.8458862-0.1225586,1.5-0.845459,1.5-1.7247314
		C12.5,7.7851562,11.7148438,7,10.75,7h-0.5C9.8364258,7,9.5,6.6635742,9.5,6.25S9.8364258,5.5,10.25,5.5H12
		c0.2763672,0,0.5-0.2236328,0.5-0.5S12.2763672,4.5,12,4.5h-1V4c0-0.2763672-0.2236328-0.5-0.5-0.5S10,3.7236328,10,4v0.5252686
		C9.1541138,4.6478271,8.5,5.3707275,8.5,6.25C8.5,7.2148438,9.2851562,8,10.25,8h0.5c0.4135742,0,0.75,0.3364258,0.75,0.75
		S11.1635742,9.5,10.75,9.5z" id="id_104"></path>
	<path fill="#9a5626" d="M20.5,14h-4c-0.2763672,0-0.5,0.2236328-0.5,0.5s0.2236328,0.5,0.5,0.5h2.7929688L13,21.2929688
		l-3.6464844-3.6464844c-0.1953125-0.1953125-0.5117188-0.1953125-0.7070312,0l-5.5,5.5
		c-0.1953125,0.1953125-0.1953125,0.5117188,0,0.7070312C3.2441406,23.9511719,3.3720703,24,3.5,24
		s0.2558594-0.0488281,0.3535156-0.1464844L9,18.7070312l3.6464844,3.6464844c0.1953125,0.1953125,0.5117188,0.1953125,0.7070312,0
		L20,15.7070312V18.5c0,0.2763672,0.2236328,0.5,0.5,0.5s0.5-0.2236328,0.5-0.5v-4C21,14.2236328,20.7763672,14,20.5,14z" id="id_105"></path>
</g>
<g>
</g>
<g>
</g>
<g>
</g>
<g>
</g>
<g>
</g>
<g>
</g>
<g>
</g>
<g>
</g>
<g>
</g>
<g>
</g>
<g>
</g>
<g>
</g>
<g>
</g>
<g>
</g>
<g>
</g>
</svg>